<svg width="1516" height="13" viewBox="0 0 1516 13" fill="none" xmlns="http://www.w3.org/2000/svg">
<rect width="2" height="9" transform="matrix(1 0 0 -1 0 13)" fill="#D9D9D9"/>
<rect width="2" height="9" transform="matrix(1 0 0 -1 8 13)" fill="#D9D9D9"/>
<rect width="2" height="13" transform="matrix(1 0 0 -1 16 13)" fill="#979693"/>
<rect width="2" height="9" transform="matrix(1 0 0 -1 24 13)" fill="#D9D9D9"/>
<rect width="2" height="9" transform="matrix(1 0 0 -1 32 13)" fill="#D9D9D9"/>
<rect width="2" height="9" transform="matrix(1 0 0 -1 39 13)" fill="#D9D9D9"/>
<rect width="2" height="9" transform="matrix(1 0 0 -1 47 13)" fill="#D9D9D9"/>
<rect width="2" height="13" transform="matrix(1 0 0 -1 55 13)" fill="#979693"/>
<rect width="2" height="9" transform="matrix(1 0 0 -1 63 13)" fill="#D9D9D9"/>
<rect width="2" height="9" transform="matrix(1 0 0 -1 71 13)" fill="#D9D9D9"/>
<rect width="2" height="9" transform="matrix(1 0 0 -1 78 13)" fill="#D9D9D9"/>
<rect width="2" height="9" transform="matrix(1 0 0 -1 86 13)" fill="#D9D9D9"/>
<rect width="2" height="13" transform="matrix(1 0 0 -1 94 13)" fill="#979693"/>
<rect width="2" height="9" transform="matrix(1 0 0 -1 102 13)" fill="#D9D9D9"/>
<rect width="2" height="9" transform="matrix(1 0 0 -1 110 13)" fill="#D9D9D9"/>
<rect width="2" height="9" transform="matrix(1 0 0 -1 117 13)" fill="#D9D9D9"/>
<rect width="2" height="9" transform="matrix(1 0 0 -1 125 13)" fill="#D9D9D9"/>
<rect width="2" height="13" transform="matrix(1 0 0 -1 133 13)" fill="#979693"/>
<rect width="2" height="9" transform="matrix(1 0 0 -1 141 13)" fill="#D9D9D9"/>
<rect width="2" height="9" transform="matrix(1 0 0 -1 149 13)" fill="#D9D9D9"/>
<rect width="2" height="9" transform="matrix(1 0 0 -1 156 13)" fill="#D9D9D9"/>
<rect width="2" height="9" transform="matrix(1 0 0 -1 164 13)" fill="#D9D9D9"/>
<rect width="2" height="13" transform="matrix(1 0 0 -1 172 13)" fill="#979693"/>
<rect width="2" height="9" transform="matrix(1 0 0 -1 180 13)" fill="#D9D9D9"/>
<rect width="2" height="9" transform="matrix(1 0 0 -1 188 13)" fill="#D9D9D9"/>
<rect width="2" height="9" transform="matrix(1 0 0 -1 195 13)" fill="#D9D9D9"/>
<rect width="2" height="9" transform="matrix(1 0 0 -1 203 13)" fill="#D9D9D9"/>
<rect width="2" height="13" transform="matrix(1 0 0 -1 211 13)" fill="#979693"/>
<rect width="2" height="9" transform="matrix(1 0 0 -1 219 13)" fill="#D9D9D9"/>
<rect width="2" height="9" transform="matrix(1 0 0 -1 227 13)" fill="#D9D9D9"/>
<rect width="2" height="9" transform="matrix(1 0 0 -1 234 13)" fill="#D9D9D9"/>
<rect width="2" height="9" transform="matrix(1 0 0 -1 242 13)" fill="#D9D9D9"/>
<rect width="2" height="13" transform="matrix(1 0 0 -1 250 13)" fill="#979693"/>
<rect width="2" height="9" transform="matrix(1 0 0 -1 258 13)" fill="#D9D9D9"/>
<rect width="2" height="9" transform="matrix(1 0 0 -1 266 13)" fill="#D9D9D9"/>
<rect width="2" height="9" transform="matrix(1 0 0 -1 273 13)" fill="#D9D9D9"/>
<rect width="2" height="9" transform="matrix(1 0 0 -1 281 13)" fill="#D9D9D9"/>
<rect width="2" height="13" transform="matrix(1 0 0 -1 289 13)" fill="#979693"/>
<rect width="2" height="9" transform="matrix(1 0 0 -1 297 13)" fill="#D9D9D9"/>
<rect width="2" height="9" transform="matrix(1 0 0 -1 305 13)" fill="#D9D9D9"/>
<rect width="2" height="9" transform="matrix(1 0 0 -1 312 13)" fill="#D9D9D9"/>
<rect width="2" height="9" transform="matrix(1 0 0 -1 320 13)" fill="#D9D9D9"/>
<rect width="2" height="13" transform="matrix(1 0 0 -1 328 13)" fill="#979693"/>
<rect width="2" height="9" transform="matrix(1 0 0 -1 336 13)" fill="#D9D9D9"/>
<rect width="2" height="9" transform="matrix(1 0 0 -1 344 13)" fill="#D9D9D9"/>
<rect width="2" height="9" transform="matrix(1 0 0 -1 351 13)" fill="#D9D9D9"/>
<rect width="2" height="9" transform="matrix(1 0 0 -1 359 13)" fill="#D9D9D9"/>
<rect width="2" height="13" transform="matrix(1 0 0 -1 367 13)" fill="#979693"/>
<rect width="2" height="9" transform="matrix(1 0 0 -1 375 13)" fill="#D9D9D9"/>
<rect width="2" height="9" transform="matrix(1 0 0 -1 383 13)" fill="#D9D9D9"/>
<rect width="2" height="9" transform="matrix(1 0 0 -1 390 13)" fill="#D9D9D9"/>
<rect width="2" height="9" transform="matrix(1 0 0 -1 398 13)" fill="#D9D9D9"/>
<rect width="2" height="13" transform="matrix(1 0 0 -1 406 13)" fill="#979693"/>
<rect width="2" height="9" transform="matrix(1 0 0 -1 414 13)" fill="#D9D9D9"/>
<rect width="2" height="9" transform="matrix(1 0 0 -1 422 13)" fill="#D9D9D9"/>
<rect width="2" height="9" transform="matrix(1 0 0 -1 429 13)" fill="#D9D9D9"/>
<rect width="2" height="9" transform="matrix(1 0 0 -1 437 13)" fill="#D9D9D9"/>
<rect width="2" height="13" transform="matrix(1 0 0 -1 445 13)" fill="#979693"/>
<rect width="2" height="9" transform="matrix(1 0 0 -1 453 13)" fill="#D9D9D9"/>
<rect width="2" height="9" transform="matrix(1 0 0 -1 461 13)" fill="#D9D9D9"/>
<rect width="2" height="9" transform="matrix(1 0 0 -1 468 13)" fill="#D9D9D9"/>
<rect width="2" height="9" transform="matrix(1 0 0 -1 476 13)" fill="#D9D9D9"/>
<rect width="2" height="13" transform="matrix(1 0 0 -1 484 13)" fill="#979693"/>
<rect width="2" height="9" transform="matrix(1 0 0 -1 492 13)" fill="#D9D9D9"/>
<rect width="2" height="9" transform="matrix(1 0 0 -1 500 13)" fill="#D9D9D9"/>
<rect width="2" height="9" transform="matrix(1 0 0 -1 507 13)" fill="#D9D9D9"/>
<rect width="2" height="9" transform="matrix(1 0 0 -1 515 13)" fill="#D9D9D9"/>
<rect width="2" height="13" transform="matrix(1 0 0 -1 523 13)" fill="#979693"/>
<rect width="2" height="9" transform="matrix(1 0 0 -1 531 13)" fill="#D9D9D9"/>
<rect width="2" height="9" transform="matrix(1 0 0 -1 539 13)" fill="#D9D9D9"/>
<rect width="2" height="9" transform="matrix(1 0 0 -1 546 13)" fill="#D9D9D9"/>
<rect width="2" height="9" transform="matrix(1 0 0 -1 554 13)" fill="#D9D9D9"/>
<rect width="2" height="13" transform="matrix(1 0 0 -1 562 13)" fill="#979693"/>
<rect width="2" height="9" transform="matrix(1 0 0 -1 570 13)" fill="#D9D9D9"/>
<rect width="2" height="9" transform="matrix(1 0 0 -1 578 13)" fill="#D9D9D9"/>
<rect width="2" height="9" transform="matrix(1 0 0 -1 585 13)" fill="#D9D9D9"/>
<rect width="2" height="9" transform="matrix(1 0 0 -1 593 13)" fill="#D9D9D9"/>
<rect width="2" height="13" transform="matrix(1 0 0 -1 601 13)" fill="#979693"/>
<rect width="2" height="9" transform="matrix(1 0 0 -1 609 13)" fill="#D9D9D9"/>
<rect width="2" height="9" transform="matrix(1 0 0 -1 617 13)" fill="#D9D9D9"/>
<rect width="2" height="9" transform="matrix(1 0 0 -1 624 13)" fill="#D9D9D9"/>
<rect width="2" height="9" transform="matrix(1 0 0 -1 632 13)" fill="#D9D9D9"/>
<rect width="2" height="13" transform="matrix(1 0 0 -1 640 13)" fill="#979693"/>
<rect width="2" height="9" transform="matrix(1 0 0 -1 648 13)" fill="#D9D9D9"/>
<rect width="2" height="9" transform="matrix(1 0 0 -1 656 13)" fill="#D9D9D9"/>
<rect width="2" height="9" transform="matrix(1 0 0 -1 663 13)" fill="#D9D9D9"/>
<rect width="2" height="9" transform="matrix(1 0 0 -1 671 13)" fill="#D9D9D9"/>
<rect width="2" height="13" transform="matrix(1 0 0 -1 679 13)" fill="#979693"/>
<rect width="2" height="9" transform="matrix(1 0 0 -1 687 13)" fill="#D9D9D9"/>
<rect width="2" height="9" transform="matrix(1 0 0 -1 695 13)" fill="#D9D9D9"/>
<rect width="2" height="9" transform="matrix(1 0 0 -1 702 13)" fill="#D9D9D9"/>
<rect width="2" height="9" transform="matrix(1 0 0 -1 710 13)" fill="#D9D9D9"/>
<rect width="2" height="13" transform="matrix(1 0 0 -1 718 13)" fill="#979693"/>
<rect width="2" height="9" transform="matrix(1 0 0 -1 726 13)" fill="#D9D9D9"/>
<rect width="2" height="9" transform="matrix(1 0 0 -1 734 13)" fill="#D9D9D9"/>
<rect width="2" height="9" transform="matrix(1 0 0 -1 741 13)" fill="#D9D9D9"/>
<rect width="2" height="9" transform="matrix(1 0 0 -1 749 13)" fill="#D9D9D9"/>
<rect width="2" height="13" transform="matrix(1 0 0 -1 757 13)" fill="#979693"/>
<rect width="2" height="9" transform="matrix(1 0 0 -1 765 13)" fill="#D9D9D9"/>
<rect width="2" height="9" transform="matrix(1 0 0 -1 773 13)" fill="#D9D9D9"/>
<rect width="2" height="9" transform="matrix(1 0 0 -1 780 13)" fill="#D9D9D9"/>
<rect width="2" height="9" transform="matrix(1 0 0 -1 788 13)" fill="#D9D9D9"/>
<rect width="2" height="13" transform="matrix(1 0 0 -1 796 13)" fill="#979693"/>
<rect width="2" height="9" transform="matrix(1 0 0 -1 804 13)" fill="#D9D9D9"/>
<rect width="2" height="9" transform="matrix(1 0 0 -1 812 13)" fill="#D9D9D9"/>
<rect width="2" height="9" transform="matrix(1 0 0 -1 819 13)" fill="#D9D9D9"/>
<rect width="2" height="9" transform="matrix(1 0 0 -1 827 13)" fill="#D9D9D9"/>
<rect width="2" height="13" transform="matrix(1 0 0 -1 835 13)" fill="#979693"/>
<rect width="2" height="9" transform="matrix(1 0 0 -1 843 13)" fill="#D9D9D9"/>
<rect width="2" height="9" transform="matrix(1 0 0 -1 851 13)" fill="#D9D9D9"/>
<rect width="2" height="9" transform="matrix(1 0 0 -1 858 13)" fill="#D9D9D9"/>
<rect width="2" height="9" transform="matrix(1 0 0 -1 866 13)" fill="#D9D9D9"/>
<rect width="2" height="13" transform="matrix(1 0 0 -1 874 13)" fill="#979693"/>
<rect width="2" height="9" transform="matrix(1 0 0 -1 882 13)" fill="#D9D9D9"/>
<rect width="2" height="9" transform="matrix(1 0 0 -1 890 13)" fill="#D9D9D9"/>
<rect width="2" height="9" transform="matrix(1 0 0 -1 897 13)" fill="#D9D9D9"/>
<rect width="2" height="9" transform="matrix(1 0 0 -1 905 13)" fill="#D9D9D9"/>
<rect width="2" height="13" transform="matrix(1 0 0 -1 913 13)" fill="#979693"/>
<rect width="2" height="9" transform="matrix(1 0 0 -1 921 13)" fill="#D9D9D9"/>
<rect width="2" height="9" transform="matrix(1 0 0 -1 929 13)" fill="#D9D9D9"/>
<rect width="2" height="9" transform="matrix(1 0 0 -1 936 13)" fill="#D9D9D9"/>
<rect width="2" height="9" transform="matrix(1 0 0 -1 944 13)" fill="#D9D9D9"/>
<rect width="2" height="13" transform="matrix(1 0 0 -1 952 13)" fill="#979693"/>
<rect width="2" height="9" transform="matrix(1 0 0 -1 960 13)" fill="#D9D9D9"/>
<rect width="2" height="9" transform="matrix(1 0 0 -1 968 13)" fill="#D9D9D9"/>
<rect width="2" height="9" transform="matrix(1 0 0 -1 975 13)" fill="#D9D9D9"/>
<rect width="2" height="9" transform="matrix(1 0 0 -1 983 13)" fill="#D9D9D9"/>
<rect width="2" height="13" transform="matrix(1 0 0 -1 991 13)" fill="#979693"/>
<rect width="2" height="9" transform="matrix(1 0 0 -1 999 13)" fill="#D9D9D9"/>
<rect width="2" height="9" transform="matrix(1 0 0 -1 1007 13)" fill="#D9D9D9"/>
<rect width="2" height="9" transform="matrix(1 0 0 -1 1014 13)" fill="#D9D9D9"/>
<rect width="2" height="9" transform="matrix(1 0 0 -1 1022 13)" fill="#D9D9D9"/>
<rect width="2" height="13" transform="matrix(1 0 0 -1 1030 13)" fill="#979693"/>
<rect width="2" height="9" transform="matrix(1 0 0 -1 1038 13)" fill="#D9D9D9"/>
<rect width="2" height="9" transform="matrix(1 0 0 -1 1046 13)" fill="#D9D9D9"/>
<rect width="2" height="9" transform="matrix(1 0 0 -1 1053 13)" fill="#D9D9D9"/>
<rect width="2" height="9" transform="matrix(1 0 0 -1 1061 13)" fill="#D9D9D9"/>
<rect width="2" height="13" transform="matrix(1 0 0 -1 1069 13)" fill="#979693"/>
<rect width="2" height="9" transform="matrix(1 0 0 -1 1077 13)" fill="#D9D9D9"/>
<rect width="2" height="9" transform="matrix(1 0 0 -1 1085 13)" fill="#D9D9D9"/>
<rect width="2" height="9" transform="matrix(1 0 0 -1 1092 13)" fill="#D9D9D9"/>
<rect width="2" height="9" transform="matrix(1 0 0 -1 1100 13)" fill="#D9D9D9"/>
<rect width="2" height="13" transform="matrix(1 0 0 -1 1108 13)" fill="#979693"/>
<rect width="2" height="9" transform="matrix(1 0 0 -1 1116 13)" fill="#D9D9D9"/>
<rect width="2" height="9" transform="matrix(1 0 0 -1 1124 13)" fill="#D9D9D9"/>
<rect width="2" height="9" transform="matrix(1 0 0 -1 1131 13)" fill="#D9D9D9"/>
<rect width="2" height="9" transform="matrix(1 0 0 -1 1139 13)" fill="#D9D9D9"/>
<rect width="2" height="13" transform="matrix(1 0 0 -1 1147 13)" fill="#979693"/>
<rect width="2" height="9" transform="matrix(1 0 0 -1 1155 13)" fill="#D9D9D9"/>
<rect width="2" height="9" transform="matrix(1 0 0 -1 1163 13)" fill="#D9D9D9"/>
<rect width="2" height="9" transform="matrix(1 0 0 -1 1170 13)" fill="#D9D9D9"/>
<rect width="2" height="9" transform="matrix(1 0 0 -1 1178 13)" fill="#D9D9D9"/>
<rect width="2" height="13" transform="matrix(1 0 0 -1 1186 13)" fill="#979693"/>
<rect width="2" height="9" transform="matrix(1 0 0 -1 1194 13)" fill="#D9D9D9"/>
<rect width="2" height="9" transform="matrix(1 0 0 -1 1202 13)" fill="#D9D9D9"/>
<rect width="2" height="9" transform="matrix(1 0 0 -1 1209 13)" fill="#D9D9D9"/>
<rect width="2" height="9" transform="matrix(1 0 0 -1 1217 13)" fill="#D9D9D9"/>
<rect width="2" height="13" transform="matrix(1 0 0 -1 1225 13)" fill="#979693"/>
<rect width="2" height="9" transform="matrix(1 0 0 -1 1233 13)" fill="#D9D9D9"/>
<rect width="2" height="9" transform="matrix(1 0 0 -1 1241 13)" fill="#D9D9D9"/>
<rect width="2" height="9" transform="matrix(1 0 0 -1 1248 13)" fill="#D9D9D9"/>
<rect width="2" height="9" transform="matrix(1 0 0 -1 1256 13)" fill="#D9D9D9"/>
<rect width="2" height="13" transform="matrix(1 0 0 -1 1264 13)" fill="#979693"/>
<rect width="2" height="9" transform="matrix(1 0 0 -1 1272 13)" fill="#D9D9D9"/>
<rect width="2" height="9" transform="matrix(1 0 0 -1 1280 13)" fill="#D9D9D9"/>
<rect width="2" height="9" transform="matrix(1 0 0 -1 1287 13)" fill="#D9D9D9"/>
<rect width="2" height="9" transform="matrix(1 0 0 -1 1295 13)" fill="#D9D9D9"/>
<rect width="2" height="13" transform="matrix(1 0 0 -1 1303 13)" fill="#979693"/>
<rect width="2" height="9" transform="matrix(1 0 0 -1 1311 13)" fill="#D9D9D9"/>
<rect width="2" height="9" transform="matrix(1 0 0 -1 1319 13)" fill="#D9D9D9"/>
<rect width="2" height="9" transform="matrix(1 0 0 -1 1326 13)" fill="#D9D9D9"/>
<rect width="2" height="9" transform="matrix(1 0 0 -1 1334 13)" fill="#D9D9D9"/>
<rect width="2" height="13" transform="matrix(1 0 0 -1 1342 13)" fill="#979693"/>
<rect width="2" height="9" transform="matrix(1 0 0 -1 1350 13)" fill="#D9D9D9"/>
<rect width="2" height="9" transform="matrix(1 0 0 -1 1358 13)" fill="#D9D9D9"/>
<rect width="2" height="9" transform="matrix(1 0 0 -1 1365 13)" fill="#D9D9D9"/>
<rect width="2" height="9" transform="matrix(1 0 0 -1 1373 13)" fill="#D9D9D9"/>
<rect width="2" height="13" transform="matrix(1 0 0 -1 1381 13)" fill="#979693"/>
<rect width="2" height="9" transform="matrix(1 0 0 -1 1389 13)" fill="#D9D9D9"/>
<rect width="2" height="9" transform="matrix(1 0 0 -1 1397 13)" fill="#D9D9D9"/>
<rect width="2" height="9" transform="matrix(1 0 0 -1 1404 13)" fill="#D9D9D9"/>
<rect width="2" height="9" transform="matrix(1 0 0 -1 1412 13)" fill="#D9D9D9"/>
<rect width="2" height="13" transform="matrix(1 0 0 -1 1420 13)" fill="#979693"/>
<rect width="2" height="9" transform="matrix(1 0 0 -1 1428 13)" fill="#D9D9D9"/>
<rect width="2" height="9" transform="matrix(1 0 0 -1 1436 13)" fill="#D9D9D9"/>
<rect width="2" height="9" transform="matrix(1 0 0 -1 1443 13)" fill="#D9D9D9"/>
<rect width="2" height="9" transform="matrix(1 0 0 -1 1451 13)" fill="#D9D9D9"/>
<rect width="2" height="13" transform="matrix(1 0 0 -1 1459 13)" fill="#979693"/>
<rect width="2" height="9" transform="matrix(1 0 0 -1 1467 13)" fill="#D9D9D9"/>
<rect width="2" height="9" transform="matrix(1 0 0 -1 1475 13)" fill="#D9D9D9"/>
<rect width="2" height="9" transform="matrix(1 0 0 -1 1482 13)" fill="#D9D9D9"/>
<rect width="2" height="9" transform="matrix(1 0 0 -1 1490 13)" fill="#D9D9D9"/>
<rect width="2" height="13" transform="matrix(1 0 0 -1 1498 13)" fill="#979693"/>
<rect width="2" height="9" transform="matrix(1 0 0 -1 1506 13)" fill="#D9D9D9"/>
<rect width="2" height="9" transform="matrix(1 0 0 -1 1514 13)" fill="#D9D9D9"/>
</svg>
